<svg width="14" height="24" viewBox="0 0 14 24" fill="none" xmlns="http://www.w3.org/2000/svg">
<path d="M0.699909 22.9C0.433243 22.5667 0.291575 22.2 0.274908 21.8C0.258241 21.4 0.399909 21.05 0.699909 20.75L9.49991 11.95L0.649908 3.1C0.383241 2.83333 0.258241 2.475 0.274908 2.025C0.291575 1.575 0.433243 1.21667 0.699909 0.95C1.03324 0.616667 1.39157 0.458334 1.77491 0.475001C2.15824 0.491667 2.49991 0.65 2.79991 0.95L12.7499 10.9C12.9166 11.0667 13.0332 11.2333 13.0999 11.4C13.1666 11.5667 13.1999 11.75 13.1999 11.95C13.1999 12.15 13.1666 12.3333 13.0999 12.5C13.0332 12.6667 12.9166 12.8333 12.7499 13L2.84991 22.9C2.54991 23.2 2.19991 23.3417 1.79991 23.325C1.39991 23.3083 1.03324 23.1667 0.699909 22.9Z" fill="#FFFFFF"/>
</svg>
