<svg width="14" height="24" viewBox="0 0 14 24" fill="none" xmlns="http://www.w3.org/2000/svg">
<path d="M10.9501 22.9L1.0501 13C0.88343 12.8333 0.766765 12.6667 0.700098 12.5C0.633431 12.3333 0.600098 12.15 0.600098 11.95C0.600098 11.75 0.633431 11.5667 0.700098 11.4C0.766765 11.2333 0.88343 11.0667 1.0501 10.9L11.0001 0.95C11.3001 0.65 11.6584 0.5 12.0751 0.5C12.4918 0.5 12.8501 0.65 13.1501 0.95C13.4501 1.25 13.5918 1.61667 13.5751 2.05C13.5584 2.48333 13.4001 2.85 13.1001 3.15L4.3001 11.95L13.1501 20.8C13.4501 21.1 13.6001 21.45 13.6001 21.85C13.6001 22.25 13.4501 22.6 13.1501 22.9C12.8501 23.2 12.4834 23.35 12.0501 23.35C11.6168 23.35 11.2501 23.2 10.9501 22.9Z" fill="#FFFFFF"/>
</svg>
