<svg width="9" height="14" viewBox="0 0 9 14" fill="none" xmlns="http://www.w3.org/2000/svg">
<path d="M0.5 1.33325C0.5 1.06659 0.6 0.833252 0.8 0.633252C1 0.433252 1.23333 0.333252 1.5 0.333252L7.5 0.333252C7.75556 0.333252 7.98611 0.433252 8.19167 0.633252C8.39722 0.833252 8.5 1.06659 8.5 1.33325V12.6666C8.5 12.9333 8.39722 13.1666 8.19167 13.3666C7.98611 13.5666 7.75556 13.6666 7.5 13.6666H1.5C1.23333 13.6666 1 13.5666 0.8 13.3666C0.6 13.1666 0.5 12.9333 0.5 12.6666L0.5 1.33325ZM1.5 1.33325L1.5 12.6666H7.5V10.4999H4.5V9.49992H7.5L7.5 7.49992H4.5V6.49992H7.5V4.49992H4.5V3.49992L7.5 3.49992V1.33325L1.5 1.33325ZM4.5 3.49992V4.49992V3.49992ZM4.5 6.49992V7.49992V6.49992ZM4.5 9.49992V10.4999V9.49992Z" fill="#1D1D1D"/>
</svg>
