<svg width="12" height="12" viewBox="0 0 12 12" fill="none" xmlns="http://www.w3.org/2000/svg">
<path d="M2.78338 11.3333C2.62782 11.3333 2.50004 11.2722 2.40004 11.15C2.30004 11.0278 2.27226 10.8889 2.31671 10.7333L2.88338 8.5H0.966709C0.811154 8.5 0.680598 8.43611 0.575043 8.30833C0.469487 8.18055 0.438932 8.03889 0.483376 7.88333C0.505598 7.77222 0.561154 7.68055 0.650043 7.60833C0.738932 7.53611 0.844487 7.5 0.966709 7.5H3.13338L3.88338 4.5H1.63338C1.47782 4.5 1.34727 4.43611 1.24171 4.30833C1.13615 4.18055 1.1056 4.03889 1.15004 3.88333C1.17226 3.77222 1.22782 3.68055 1.31671 3.60833C1.4056 3.53611 1.51115 3.5 1.63338 3.5H4.13338L4.75004 1.03333C4.77226 0.92222 4.82504 0.833331 4.90838 0.766664C4.99171 0.699998 5.08893 0.666664 5.20004 0.666664C5.3556 0.666664 5.4806 0.727775 5.57504 0.849998C5.66949 0.97222 5.70004 1.11111 5.66671 1.26666L5.11671 3.5H8.13338L8.75004 1.03333C8.77226 0.92222 8.82504 0.833331 8.90837 0.766664C8.99171 0.699998 9.08893 0.666664 9.20004 0.666664C9.3556 0.666664 9.4806 0.727775 9.57504 0.849998C9.66949 0.97222 9.70004 1.11111 9.66671 1.26666L9.11671 3.5H11.0334C11.1889 3.5 11.3195 3.56389 11.425 3.69166C11.5306 3.81944 11.5612 3.96111 11.5167 4.11666C11.4945 4.22778 11.4389 4.31944 11.35 4.39166C11.2612 4.46389 11.1556 4.5 11.0334 4.5H8.86671L8.11671 7.5H10.3667C10.5223 7.5 10.6528 7.56389 10.7584 7.69166C10.8639 7.81944 10.8945 7.96111 10.85 8.11666C10.8278 8.22777 10.7723 8.31944 10.6834 8.39166C10.5945 8.46389 10.4889 8.5 10.3667 8.5H7.86671L7.25004 10.9667C7.22782 11.0556 7.1806 11.1389 7.10838 11.2167C7.03615 11.2944 6.92782 11.3333 6.78338 11.3333C6.62782 11.3333 6.50004 11.2722 6.40004 11.15C6.30004 11.0278 6.27226 10.8889 6.31671 10.7333L6.88338 8.5H3.86671L3.25004 10.9667C3.22782 11.0556 3.1806 11.1389 3.10838 11.2167C3.03615 11.2944 2.92782 11.3333 2.78338 11.3333ZM4.11671 7.5H7.13338L7.88338 4.5H4.86671L4.11671 7.5Z" fill="#DC0A2D"/>
</svg>
