<svg width="12" height="13" viewBox="0 0 12 13" fill="none" xmlns="http://www.w3.org/2000/svg">
<path d="M1.28333 12.0001H10.05L9 4.66675H2.33333L1.28333 12.0001ZM5.66667 3.66675C5.95556 3.66675 6.19444 3.56953 6.38333 3.37508C6.57222 3.18064 6.66667 2.94453 6.66667 2.66675C6.66667 2.37786 6.57222 2.13897 6.38333 1.95008C6.19444 1.76119 5.95556 1.66675 5.66667 1.66675C5.38889 1.66675 5.15278 1.76119 4.95833 1.95008C4.76389 2.13897 4.66667 2.37786 4.66667 2.66675C4.66667 2.94453 4.76389 3.18064 4.95833 3.37508C5.15278 3.56953 5.38889 3.66675 5.66667 3.66675ZM7.4 3.66675H9C9.25556 3.66675 9.47778 3.7473 9.66667 3.90841C9.85556 4.06953 9.96667 4.27786 10 4.53341L11.0333 11.8667C11.0778 12.1667 11.0028 12.4306 10.8083 12.6584C10.6139 12.8862 10.3611 13.0001 10.05 13.0001H1.28333C0.972223 13.0001 0.719445 12.8862 0.525001 12.6584C0.330556 12.4306 0.255556 12.1667 0.300001 11.8667L1.33333 4.53341C1.36667 4.27786 1.47778 4.06953 1.66667 3.90841C1.85556 3.7473 2.07778 3.66675 2.33333 3.66675H3.93333C3.84444 3.51119 3.77778 3.35286 3.73333 3.19175C3.68889 3.03064 3.66667 2.85564 3.66667 2.66675C3.66667 2.11119 3.86111 1.63897 4.25 1.25008C4.63889 0.861192 5.11111 0.666748 5.66667 0.666748C6.22222 0.666748 6.69444 0.861192 7.08333 1.25008C7.47222 1.63897 7.66667 2.11119 7.66667 2.66675C7.66667 2.85564 7.64444 3.03064 7.6 3.19175C7.55556 3.35286 7.48889 3.51119 7.4 3.66675ZM1.28333 12.0001H10.05H1.28333Z" fill="#1D1D1D"/>
</svg>
